<svg id="visual" viewBox="0 0 1920 1080" width="1920" height="1080" xmlns="http://www.w3.org/2000/svg" xmlns:xlink="http://www.w3.org/1999/xlink" version="1.1"><g transform="translate(998.3582911221558 516.7780850390104)"><path d="M231.3 -349.7C305.4 -312.2 375.1 -257.7 394.4 -188.1C413.7 -118.6 382.5 -34 366.8 50.5C351.1 135 350.9 219.4 315.1 288.5C279.3 357.7 208 411.5 128.3 433.3C48.6 455.1 -39.5 444.9 -106.9 406C-174.3 367 -220.9 299.4 -280.5 238.6C-340 177.8 -412.5 123.8 -449.8 47.7C-487.1 -28.3 -489.1 -126.3 -438.7 -185.2C-388.3 -244.2 -285.4 -264.1 -203.5 -298C-121.6 -332 -60.8 -380 8.9 -393.8C78.6 -407.6 157.1 -387.2 231.3 -349.7" fill="#280EE0"></path></g></svg>