<svg id="visual" viewBox="0 0 1920 1080" width="1920" height="1080" xmlns="http://www.w3.org/2000/svg" xmlns:xlink="http://www.w3.org/1999/xlink" version="1.1"><rect width="1920" height="1080" fill="#e4f1f9"></rect><g><g transform="translate(1533 43)"><path d="M141.2 -153.4C173.1 -109.3 182.3 -54.6 177.5 -4.8C172.7 45 153.8 89.9 121.9 130.7C89.9 171.4 45 208 -9.9 217.9C-64.9 227.8 -129.7 211.2 -175.3 170.5C-220.9 129.7 -247.2 64.9 -243.4 3.8C-239.5 -57.2 -205.5 -114.4 -160 -158.5C-114.4 -202.6 -57.2 -233.6 -1.3 -232.3C54.6 -231.1 109.3 -197.5 141.2 -153.4Z" stroke="#FFD400" fill="none" stroke-width="20"></path></g><g transform="translate(1188 496)"><path d="M81.6 -88.4C102.4 -60.9 113.4 -30.4 115 1.5C116.5 33.5 108.5 67 87.8 96.8C67 126.6 33.5 152.6 1.5 151C-30.5 149.5 -61 120.5 -83.7 90.8C-106.4 61 -121.2 30.5 -127.1 -5.9C-133 -42.3 -130 -84.6 -107.3 -112.1C-84.6 -139.6 -42.3 -152.4 -5.9 -146.5C30.4 -140.6 60.9 -115.9 81.6 -88.4Z" stroke="#FFD400" fill="none" stroke-width="20"></path></g><g transform="translate(353 45)"><path d="M105.8 -97C137.5 -74.1 163.8 -37 162.9 -0.9C162 35.3 133.9 70.5 102.2 95.7C70.5 120.8 35.3 135.9 -1.9 137.8C-39.1 139.7 -78.1 128.5 -110.6 103.3C-143 78.1 -168.7 39.1 -172 -3.3C-175.3 -45.6 -156.1 -91.3 -123.7 -114.2C-91.3 -137.1 -45.6 -137.4 -4.3 -133.1C37 -128.7 74.1 -119.9 105.8 -97Z" stroke="#FFD400" fill="none" stroke-width="20"></path></g><g transform="translate(1559 1062)"><path d="M138.9 -126.5C175 -102.8 195.8 -51.4 188.5 -7.4C181.1 36.6 145.5 73.2 109.4 104C73.2 134.8 36.6 159.8 -6.1 165.8C-48.7 171.9 -97.5 159 -124.7 128.2C-152 97.5 -157.7 48.7 -154.9 2.8C-152 -43 -140.6 -86.1 -113.3 -109.8C-86.1 -133.5 -43 -137.8 4.2 -142C51.4 -146.2 102.8 -150.2 138.9 -126.5Z" stroke="#FFD400" fill="none" stroke-width="20"></path></g><g transform="translate(624 544)"><path d="M56.8 -64.5C71.3 -42.3 79.2 -21.1 84.4 5.2C89.7 31.6 92.3 63.3 77.8 85.1C63.3 106.8 31.6 118.8 5.3 113.4C-21 108.1 -42 85.6 -64.1 63.8C-86.2 42 -109.4 21 -112.1 -2.8C-114.9 -26.5 -97.2 -53 -75.1 -75.2C-53 -97.5 -26.5 -115.4 -2.7 -112.8C21.1 -110.1 42.3 -86.8 56.8 -64.5Z" stroke="#FFD400" fill="none" stroke-width="20"></path></g><g transform="translate(221 959)"><path d="M122.5 -129.3C145.1 -99.9 140.4 -49.9 139.5 -0.9C138.7 48.2 141.7 96.5 119.1 119.6C96.5 142.7 48.2 140.7 7.4 133.3C-33.4 125.8 -66.7 113 -99.4 89.9C-132 66.7 -164 33.4 -169.8 -5.8C-175.6 -45 -155.3 -90 -122.6 -119.4C-90 -148.8 -45 -162.6 2.5 -165.1C49.9 -167.6 99.9 -158.7 122.5 -129.3Z" stroke="#FFD400" fill="none" stroke-width="20"></path></g></g></svg>