<svg id="visual" viewBox="0 0 1920 1080" width="1920" height="1080" xmlns="http://www.w3.org/2000/svg" xmlns:xlink="http://www.w3.org/1999/xlink" version="1.1"><rect width="1920" height="1080" fill="#e4f1f9"></rect><g><g transform="translate(525 602)"><path d="M146.9 -142.4C191 -102.8 227.7 -51.4 230.7 2.9C233.6 57.2 202.6 114.4 158.5 154C114.4 193.5 57.2 215.3 6.9 208.4C-43.4 201.5 -86.7 165.8 -127.4 126.3C-168.1 86.7 -206 43.4 -208.9 -2.9C-211.8 -49.2 -179.8 -98.4 -139.1 -138.1C-98.4 -177.7 -49.2 -207.7 1.1 -208.8C51.4 -209.9 102.8 -182 146.9 -142.4Z" stroke="#FFD400" fill="none" stroke-width="20"></path></g><g transform="translate(1159 788)"><path d="M91.1 -93.1C111.5 -70.7 116.9 -35.4 115.8 -1.1C114.7 33.1 107.1 66.3 86.7 88.6C66.3 111 33.1 122.5 1 121.5C-31.2 120.5 -62.3 107 -89.7 84.7C-117.1 62.3 -140.6 31.2 -140.2 0.5C-139.7 -30.2 -115.1 -60.3 -87.7 -82.7C-60.3 -105.1 -30.2 -119.6 2.6 -122.2C35.4 -124.8 70.7 -115.4 91.1 -93.1Z" stroke="#FFD400" fill="none" stroke-width="20"></path></g><g transform="translate(1240 240)"><path d="M75.3 -71.4C94.6 -56 105.1 -28 107.3 2.1C109.4 32.3 103.1 64.6 83.9 86C64.6 107.3 32.3 117.8 -0.9 118.7C-34.1 119.6 -68.2 111 -84.3 89.6C-100.4 68.2 -98.6 34.1 -98.5 0.1C-98.5 -34 -100.2 -67.9 -84.1 -83.3C-67.9 -98.6 -34 -95.4 -3 -92.4C28 -89.4 56 -86.7 75.3 -71.4Z" stroke="#FFD400" fill="none" stroke-width="20"></path></g><g transform="translate(24 885)"><path d="M159.9 -159.2C202.4 -117.3 228.9 -58.6 223.3 -5.6C217.8 47.5 180.1 94.9 137.5 127.4C94.9 159.9 47.5 177.3 2.7 174.7C-42.1 172 -84.2 149.2 -121.1 116.7C-157.9 84.2 -189.4 42.1 -191.5 -2.1C-193.6 -46.3 -166.2 -92.6 -129.4 -134.4C-92.6 -176.3 -46.3 -213.8 6.2 -219.9C58.6 -226.1 117.3 -201 159.9 -159.2Z" stroke="#FFD400" fill="none" stroke-width="20"></path></g><g transform="translate(1814 125)"><path d="M132.3 -134C160.6 -104 165.3 -52 165.1 -0.2C164.9 51.6 159.9 103.3 131.6 126.8C103.3 150.4 51.6 146 4.3 141.7C-43.1 137.4 -86.1 133.3 -122.1 109.7C-158.1 86.1 -186.9 43.1 -184.7 2.2C-182.5 -38.6 -149.1 -77.2 -113.2 -107.2C-77.2 -137.2 -38.6 -158.5 6.7 -165.2C52 -171.9 104 -163.9 132.3 -134Z" stroke="#FFD400" fill="none" stroke-width="20"></path></g><g transform="translate(22 74)"><path d="M83.9 -83.9C100.1 -67.7 98.7 -33.9 92.9 -5.8C87 22.2 76.8 44.4 60.6 61.8C44.4 79.3 22.2 92 -0.7 92.7C-23.6 93.4 -47.1 82.1 -66.8 64.6C-86.4 47.1 -102 23.6 -103.8 -1.7C-105.5 -27.1 -93.4 -54.1 -73.7 -70.4C-54.1 -86.6 -27.1 -92 3.4 -95.3C33.9 -98.7 67.7 -100.2 83.9 -83.9Z" stroke="#FFD400" fill="none" stroke-width="20"></path></g></g></svg>