<svg id="visual" viewBox="0 0 1920 1080" width="1920" height="1080" xmlns="http://www.w3.org/2000/svg" xmlns:xlink="http://www.w3.org/1999/xlink" version="1.1"><rect width="1920" height="1080" fill="#e4f1f9"></rect><g><g transform="translate(1911 754)"><path d="M123 -123.4C160.3 -85.7 192.1 -42.8 200.9 8.7C209.6 60.3 195.2 120.6 157.9 165.3C120.6 210 60.3 239.2 2.1 237.1C-56.2 235 -112.3 201.8 -145.6 157C-178.9 112.3 -189.4 56.2 -192.9 -3.5C-196.5 -63.2 -193.1 -126.4 -159.8 -164.2C-126.4 -201.9 -63.2 -214.1 -10.2 -203.9C42.8 -193.7 85.7 -161.1 123 -123.4Z" stroke="#FFD400" fill="none" stroke-width="20"></path></g><g transform="translate(436 768)"><path d="M150.7 -145.4C190.3 -111 214.1 -55.5 211.4 -2.7C208.8 50.2 179.6 100.4 140 131.3C100.4 162.3 50.2 174 3.5 170.5C-43.2 167 -86.3 148.3 -114.1 117.3C-142 86.3 -154.4 43.2 -152.8 1.6C-151.2 -39.9 -135.5 -79.9 -107.7 -114.3C-79.9 -148.6 -39.9 -177.5 7.8 -185.2C55.5 -193 111 -179.8 150.7 -145.4Z" stroke="#FFD400" fill="none" stroke-width="20"></path></g><g transform="translate(503 2)"><path d="M148.5 -159.9C181.7 -115.4 190.4 -57.7 184.2 -6.2C178 45.3 157 90.7 123.8 128.2C90.7 165.7 45.3 195.4 -3.2 198.6C-51.8 201.8 -103.5 178.5 -139.2 141C-174.8 103.5 -194.3 51.8 -194.1 0.2C-193.9 -51.3 -173.9 -102.6 -138.3 -147.2C-102.6 -191.7 -51.3 -229.5 3.2 -232.7C57.7 -235.9 115.4 -204.5 148.5 -159.9Z" stroke="#FFD400" fill="none" stroke-width="20"></path></g><g transform="translate(1420 160)"><path d="M101.6 -95.4C126.8 -76.5 138.7 -38.3 136.7 -2C134.7 34.3 118.8 68.6 93.7 93.8C68.6 119.1 34.3 135.3 4 131.3C-26.3 127.4 -52.7 103.2 -70.6 77.9C-88.6 52.7 -98.3 26.3 -98.9 -0.6C-99.6 -27.6 -91.1 -55.1 -73.1 -74C-55.1 -92.8 -27.6 -102.9 5.3 -108.2C38.3 -113.6 76.5 -114.2 101.6 -95.4Z" stroke="#FFD400" fill="none" stroke-width="20"></path></g><g transform="translate(1016 763)"><path d="M108.9 -112.6C141.9 -75.8 170.2 -37.9 175.1 4.9C180 47.6 161.4 95.3 128.3 122.9C95.3 150.5 47.6 158.2 5.9 152.3C-35.8 146.4 -71.6 126.9 -110.6 99.2C-149.6 71.6 -191.9 35.8 -199.3 -7.4C-206.6 -50.5 -179.1 -101 -140.1 -137.9C-101 -174.7 -50.5 -197.8 -6.3 -191.5C37.9 -185.2 75.8 -149.4 108.9 -112.6Z" stroke="#FFD400" fill="none" stroke-width="20"></path></g><g transform="translate(24 320)"><path d="M100.5 -103.6C132.3 -68.7 161.5 -34.4 167.7 6.2C173.9 46.8 157.1 93.6 125.3 123.5C93.6 153.4 46.8 166.4 2.7 163.7C-41.3 160.9 -82.6 142.4 -111.7 112.5C-140.8 82.6 -157.6 41.3 -153.5 4.1C-149.5 -33.2 -124.5 -66.4 -95.4 -101.3C-66.4 -136.1 -33.2 -172.7 0.6 -173.3C34.4 -173.9 68.7 -138.5 100.5 -103.6Z" stroke="#FFD400" fill="none" stroke-width="20"></path></g></g></svg>